<svg width="73" height="78" viewBox="0 0 73 78" fill="none" xmlns="http://www.w3.org/2000/svg">
<g clip-path="url(#clip0_105617_286)">
<path d="M37.4703 35.1864L58 34L37.4703 32.8136C35.8496 31.8644 34.4449 30.322 33.5805 28.5424L32.5 6L31.4195 28.5424C30.5551 30.322 29.1504 31.8644 27.5297 32.8136L7 34L27.5297 35.1864C29.1504 36.1356 30.5551 37.678 31.4195 39.4576L32.5 62L33.5805 39.4576C34.4449 37.5593 35.7415 36.1356 37.4703 35.1864Z" fill="black"/>
</g>
<g clip-path="url(#clip1_105617_286)">
<path d="M60.5212 61.7203L73 61L60.5212 60.2797C59.536 59.7034 58.6822 58.767 58.1568 57.6864L57.5 44L56.8432 57.6864C56.3178 58.767 55.464 59.7034 54.4788 60.2797L42 61L54.4788 61.7203C55.464 62.2966 56.3178 63.233 56.8432 64.3136L57.5 78L58.1568 64.3136C58.6822 63.161 59.4703 62.2966 60.5212 61.7203Z" fill="black"/>
</g>
<defs>
<clipPath id="clip0_105617_286">
<rect width="51" height="56" fill="white"/>
</clipPath>
<clipPath id="clip1_105617_286">
<rect width="31" height="34" fill="white" transform="translate(42 44)"/>
</clipPath>
</defs>
</svg>
